<?xml version="1.0" encoding="utf-8"?>
<!-- Generator: Adobe Illustrator 15.1.0, SVG Export Plug-In . SVG Version: 6.00 Build 0)  -->
<!DOCTYPE svg PUBLIC "-//W3C//DTD SVG 1.1//EN" "http://www.w3.org/Graphics/SVG/1.1/DTD/svg11.dtd">
<svg version="1.1" id="Layer_1" xmlns="http://www.w3.org/2000/svg" xmlns:xlink="http://www.w3.org/1999/xlink" x="0px" y="0px"
	 width="511.711px" height="133.825px" viewBox="0 0 511.711 133.825" enable-background="new 0 0 511.711 133.825"
	 xml:space="preserve">
<path fill="#2E3192" d="M-317.561,15.86h49.874v10.688h-38.127v17.328h33.793v10.688h-33.793v18.002h38.607v10.688h-50.354V15.86z"
	/>
<path fill="#2E3192" d="M-223.259,26.837h-21.371V15.86h54.685v10.977h-21.375v56.417h-11.938V26.837z"/>
<path fill="#2E3192" d="M-165.678,15.86h49.868v10.688h-38.125v17.328h33.792v10.688h-33.792v18.002h38.607v10.688h-50.351V15.86z"
	/>
<polygon fill="#2E3192" points="-453.818,15.38 -464.792,15.38 -494.445,83.254 -482.314,83.254 -470.981,56.49 -471.051,56.49 
	-465.058,42.509 -459.304,28.921 -436.628,83.254 -424.164,83.254 "/>
<path fill="#2E3192" d="M-361.335,57.74c2.373-0.641,4.539-1.555,6.498-2.742c1.957-1.188,3.641-2.633,5.055-4.334
	c1.41-1.699,2.518-3.658,3.32-5.871c0.803-2.215,1.203-4.701,1.203-7.463v-0.192c0-2.951-0.48-5.647-1.443-8.088
	c-0.963-2.438-2.344-4.588-4.141-6.449c-2.182-2.119-4.91-3.77-8.182-4.959c-3.273-1.187-7.029-1.781-11.267-1.781h-30.036v67.394
	h11.745v-23.49V49.27V30.759v-4.21h17.285c4.442,0,7.888,0.949,10.335,2.851c2.445,1.901,3.67,4.69,3.67,8.363v0.193
	c0,3.481-1.256,6.237-3.768,8.269c-2.51,2.031-5.891,3.045-10.14,3.045h-2.512v10.494l16.61,23.49h13.961L-361.335,57.74z"/>
<path fill="#F6ADCD" d="M-560.24,117.993c-13.588,0-26.375-5.282-36.002-14.874l4.271-4.289c8.486,8.454,19.755,13.11,31.73,13.11
	V117.993z"/>
<path fill="#F6ADCD" d="M-592.025,35.19l-4.279-4.281c9.634-9.632,22.441-14.936,36.064-14.936v6.053
	C-572.246,22.026-583.535,26.701-592.025,35.19z"/>
<path fill="#2E3192" d="M-560.24,84.877v6.053c11.311,0,20.808-7.883,23.303-18.441h-6.283
	C-545.548,79.668-552.293,84.877-560.24,84.877z"/>
<g>
	<g>
		<path fill="#2E3192" d="M-583.758,62.488h6.218c2.002-7.695,8.988-13.4,17.301-13.4v-6.053
			C-571.908,43.035-581.648,51.425-583.758,62.488z"/>
	</g>
</g>
<g>
	<g>
		<path fill="#EC008C" d="M-533.95,72.488c-2.547,12.179-13.365,21.354-26.29,21.354c-12.924,0-23.743-9.176-26.291-21.354h-6.152
			c2.629,15.535,16.172,27.407,32.443,27.407c16.272,0,29.816-11.872,32.444-27.407H-533.95z"/>
	</g>
</g>
<g>
	<g>
		<path fill="#EC008C" d="M-560.24,34.068c-16.623,0-30.399,12.391-32.599,28.42h6.122c2.145-12.679,13.197-22.367,26.477-22.367
			s24.331,9.688,26.477,22.367h6.123C-529.839,46.459-543.616,34.068-560.24,34.068z"/>
	</g>
</g>
<g>
	<g>
		<path fill="#2E3192" d="M-560.24,25.103c-11.162,0-21.664,4.342-29.57,12.226l4.273,4.287c6.765-6.745,15.748-10.46,25.297-10.46
			c18.232,0,33.316,13.692,35.535,31.333h6.102C-520.853,41.502-538.666,25.103-560.24,25.103z"/>
	</g>
</g>
<g>
	<g>
		<path fill="#2E3192" d="M-524.836,72.488c-2.657,17.15-17.52,30.321-35.403,30.321c-9.516,0-18.477-3.691-25.232-10.394
			l-4.263,4.297c7.897,7.836,18.372,12.149,29.495,12.149c21.227,0,38.802-15.876,41.508-36.374H-524.836z"/>
	</g>
</g>
<g>
	<g>
		<path fill="#F6ADCD" d="M-524.118,30.965l-4.286,4.273c7.395,7.416,11.885,16.962,12.9,27.25h6.07
			C-510.467,50.586-515.583,39.523-524.118,30.965z"/>
	</g>
</g>
<g>
	<path fill="#6D6E71" d="M-494.49,98.02h3.758l6.111,9.495l6.109-9.495h3.758v20.081h-3.5v-14.4l-6.34,9.466h-0.113l-6.283-9.408
		v14.343h-3.5V98.02z"/>
	<path fill="#6D6E71" d="M-469.43,98.02h14.862v3.185h-11.361v5.163h10.07v3.185h-10.07v5.364h11.504v3.185h-15.005V98.02z"/>
	<path fill="#6D6E71" d="M-450.039,98.02h7.486c1.568,0,3.008,0.254,4.318,0.761c1.309,0.507,2.438,1.21,3.385,2.108
		c0.947,0.899,1.678,1.955,2.193,3.17c0.518,1.215,0.775,2.529,0.775,3.944v0.058c0,1.415-0.258,2.734-0.775,3.958
		c-0.516,1.225-1.246,2.286-2.193,3.185c-0.947,0.899-2.076,1.606-3.385,2.123c-1.311,0.517-2.75,0.774-4.318,0.774h-7.486V98.02z
		 M-442.582,114.916c1.053,0,2.01-0.167,2.869-0.504c0.861-0.336,1.592-0.806,2.195-1.411c0.602-0.605,1.07-1.325,1.406-2.161
		c0.334-0.835,0.502-1.742,0.502-2.722v-0.058c0-0.979-0.168-1.892-0.502-2.737c-0.336-0.845-0.805-1.569-1.406-2.175
		c-0.604-0.604-1.334-1.08-2.195-1.426c-0.859-0.346-1.816-0.519-2.869-0.519h-3.957v13.712H-442.582z"/>
	<path fill="#6D6E71" d="M-427.554,98.02h3.5v20.081h-3.5V98.02z"/>
	<path fill="#6D6E71" d="M-409.355,118.445c-1.475,0-2.832-0.269-4.074-0.804c-1.244-0.535-2.322-1.267-3.236-2.194
		s-1.631-2.022-2.15-3.285c-0.521-1.262-0.781-2.61-0.781-4.045v-0.057c0-1.435,0.256-2.778,0.766-4.031
		c0.512-1.252,1.229-2.352,2.152-3.299c0.924-0.946,2.016-1.692,3.279-2.237c1.262-0.545,2.656-0.817,4.188-0.817
		c0.918,0,1.754,0.076,2.51,0.229s1.449,0.368,2.08,0.646s1.215,0.607,1.75,0.989c0.535,0.384,1.041,0.804,1.52,1.263l-2.266,2.61
		c-0.803-0.746-1.654-1.349-2.553-1.808c-0.9-0.459-1.922-0.688-3.07-0.688c-0.955,0-1.84,0.187-2.652,0.56
		c-0.814,0.373-1.518,0.88-2.109,1.521c-0.594,0.641-1.053,1.392-1.377,2.252c-0.326,0.86-0.488,1.778-0.488,2.754v0.058
		c0,0.975,0.162,1.897,0.488,2.768c0.324,0.871,0.783,1.631,1.377,2.281c0.592,0.65,1.295,1.161,2.109,1.534
		c0.812,0.373,1.697,0.56,2.652,0.56c1.225,0,2.275-0.234,3.156-0.703c0.879-0.468,1.75-1.104,2.609-1.907l2.268,2.295
		c-0.518,0.555-1.057,1.047-1.621,1.478c-0.564,0.43-1.172,0.803-1.822,1.118c-0.65,0.316-1.361,0.556-2.137,0.718
		S-408.419,118.445-409.355,118.445z"/>
	<path fill="#6D6E71" d="M-390.458,97.876h3.27l8.836,20.225h-3.73l-2.035-4.848h-9.496l-2.065,4.848h-3.613L-390.458,97.876z
		 M-385.409,110.126l-3.473-8.032l-3.441,8.032H-385.409z"/>
	<path fill="#6D6E71" d="M-375.106,98.02h3.5v16.896h10.558v3.185h-14.058V98.02z"/>
	<path fill="#6D6E71" d="M-343.808,101.29h-6.367V98.02h16.294v3.271h-6.368v16.811h-3.559V101.29z"/>
	<path fill="#6D6E71" d="M-330.493,98.02h14.859v3.185h-11.359v5.163h10.068v3.185h-10.068v5.364h11.502v3.185h-15.002V98.02z"/>
	<path fill="#6D6E71" d="M-302.328,118.445c-1.473,0-2.83-0.269-4.074-0.804c-1.242-0.535-2.32-1.267-3.234-2.194
		s-1.631-2.022-2.152-3.285c-0.52-1.262-0.779-2.61-0.779-4.045v-0.057c0-1.435,0.254-2.778,0.766-4.031
		c0.51-1.252,1.227-2.352,2.15-3.299c0.924-0.946,2.018-1.692,3.279-2.237s2.658-0.817,4.188-0.817c0.918,0,1.757,0.076,2.513,0.229
		c0.754,0.153,1.447,0.368,2.078,0.646c0.633,0.277,1.215,0.607,1.75,0.989c0.535,0.384,1.044,0.804,1.522,1.263l-2.267,2.61
		c-0.805-0.746-1.656-1.349-2.555-1.808s-1.923-0.688-3.069-0.688c-0.957,0-1.842,0.187-2.654,0.56s-1.516,0.88-2.107,1.521
		c-0.594,0.641-1.053,1.392-1.377,2.252c-0.326,0.86-0.488,1.778-0.488,2.754v0.058c0,0.975,0.162,1.897,0.488,2.768
		c0.324,0.871,0.783,1.631,1.377,2.281c0.592,0.65,1.295,1.161,2.107,1.534s1.697,0.56,2.654,0.56c1.224,0,2.276-0.234,3.155-0.703
		c0.881-0.468,1.75-1.104,2.611-1.907l2.267,2.295c-0.516,0.555-1.058,1.047-1.622,1.478c-0.562,0.43-1.17,0.803-1.82,1.118
		c-0.65,0.316-1.363,0.556-2.137,0.718C-300.534,118.363-301.39,118.445-302.328,118.445z"/>
	<path fill="#6D6E71" d="M-290.654,98.02h3.5v8.348h9.638V98.02h3.501v20.081h-3.501v-8.463h-9.638v8.463h-3.5V98.02z"/>
	<path fill="#6D6E71" d="M-268.705,98.02h3.264l10.734,13.885V98.02h3.5v20.081h-2.949l-11.049-14.286v14.286h-3.5V98.02z"/>
	<path fill="#6D6E71" d="M-236.433,118.445c-1.549,0-2.965-0.273-4.246-0.818s-2.381-1.285-3.299-2.223s-1.635-2.032-2.15-3.285
		c-0.518-1.252-0.775-2.586-0.775-4.002v-0.057c0-1.415,0.258-2.749,0.775-4.002c0.516-1.253,1.242-2.353,2.18-3.299
		c0.938-0.947,2.047-1.697,3.328-2.252s2.697-0.832,4.246-0.832s2.963,0.272,4.244,0.817s2.381,1.286,3.299,2.224
		c0.918,0.937,1.637,2.032,2.152,3.284c0.516,1.253,0.773,2.587,0.773,4.002v0.058c0,1.415-0.258,2.749-0.773,4.001
		c-0.516,1.253-1.244,2.353-2.18,3.3c-0.938,0.946-2.047,1.697-3.328,2.252C-233.468,118.167-234.884,118.445-236.433,118.445z
		 M-236.375,115.203c0.99,0,1.898-0.187,2.727-0.56s1.539-0.879,2.129-1.521c0.59-0.641,1.051-1.391,1.385-2.252
		c0.334-0.86,0.5-1.778,0.5-2.754v-0.057c0-0.976-0.166-1.898-0.5-2.769s-0.801-1.625-1.4-2.267c-0.6-0.641-1.318-1.151-2.156-1.534
		s-1.752-0.574-2.742-0.574s-1.898,0.187-2.727,0.56c-0.83,0.373-1.539,0.88-2.129,1.521s-1.053,1.392-1.385,2.252
		c-0.334,0.86-0.5,1.778-0.5,2.754v0.058c0,0.975,0.166,1.897,0.5,2.768c0.332,0.871,0.799,1.626,1.398,2.267
		s1.318,1.152,2.158,1.536C-238.281,115.013-237.367,115.203-236.375,115.203z"/>
	<path fill="#6D6E71" d="M-221.617,98.02h3.499v16.896h10.557v3.185h-14.056V98.02z"/>
	<path fill="#6D6E71" d="M-195.198,118.445c-1.549,0-2.965-0.273-4.246-0.818s-2.381-1.285-3.299-2.223s-1.635-2.032-2.152-3.285
		c-0.516-1.252-0.773-2.586-0.773-4.002v-0.057c0-1.415,0.258-2.749,0.773-4.002c0.518-1.253,1.244-2.353,2.182-3.299
		c0.936-0.947,2.045-1.697,3.326-2.252s2.697-0.832,4.246-0.832s2.965,0.272,4.246,0.817c1.283,0.545,2.383,1.286,3.301,2.224
		c0.918,0.937,1.635,2.032,2.152,3.284c0.516,1.253,0.773,2.587,0.773,4.002v0.058c0,1.415-0.258,2.749-0.773,4.001
		c-0.518,1.253-1.244,2.353-2.182,3.3c-0.936,0.946-2.045,1.697-3.328,2.252C-192.233,118.167-193.649,118.445-195.198,118.445z
		 M-195.141,115.203c0.99,0,1.9-0.187,2.729-0.56s1.537-0.879,2.127-1.521c0.594-0.641,1.055-1.391,1.389-2.252
		c0.332-0.86,0.5-1.778,0.5-2.754v-0.057c0-0.976-0.168-1.898-0.5-2.769c-0.334-0.87-0.801-1.625-1.402-2.267
		c-0.6-0.641-1.318-1.151-2.156-1.534s-1.752-0.574-2.742-0.574s-1.9,0.187-2.729,0.56s-1.537,0.88-2.127,1.521
		c-0.592,0.641-1.053,1.392-1.387,2.252s-0.5,1.778-0.5,2.754v0.058c0,0.975,0.166,1.897,0.5,2.768
		c0.334,0.871,0.801,1.626,1.4,2.267s1.318,1.152,2.156,1.536C-197.045,115.013-196.131,115.203-195.141,115.203z"/>
	<path fill="#6D6E71" d="M-171.053,118.445c-1.568,0-2.992-0.264-4.273-0.789s-2.377-1.253-3.285-2.181
		c-0.908-0.927-1.611-2.018-2.107-3.271c-0.496-1.252-0.744-2.613-0.744-4.088v-0.057c0-1.396,0.254-2.726,0.764-3.988
		c0.51-1.262,1.227-2.366,2.15-3.312c0.924-0.947,2.021-1.697,3.295-2.252c1.271-0.555,2.662-0.832,4.174-0.832
		c0.879,0,1.678,0.062,2.395,0.187s1.381,0.301,1.994,0.53c0.611,0.229,1.189,0.512,1.734,0.847s1.076,0.722,1.594,1.161
		l-2.238,2.668c-0.383-0.324-0.775-0.621-1.176-0.889c-0.402-0.268-0.822-0.492-1.264-0.675c-0.439-0.182-0.922-0.324-1.447-0.43
		c-0.527-0.105-1.105-0.158-1.736-0.158c-0.918,0-1.773,0.192-2.566,0.575c-0.795,0.383-1.482,0.896-2.066,1.538
		s-1.043,1.394-1.377,2.256s-0.502,1.772-0.502,2.731v0.057c0,1.035,0.162,1.993,0.486,2.875s0.787,1.639,1.389,2.271
		c0.6,0.633,1.316,1.131,2.146,1.495c0.828,0.363,1.76,0.546,2.789,0.546c0.955,0,1.846-0.14,2.676-0.418
		c0.83-0.279,1.551-0.649,2.16-1.11v-3.779h-5.135v-3.069h8.549v8.435c-0.498,0.421-1.047,0.822-1.648,1.204
		c-0.604,0.383-1.254,0.718-1.951,1.004c-0.699,0.287-1.449,0.513-2.252,0.675S-170.172,118.445-171.053,118.445z"/>
	<path fill="#6D6E71" d="M-157.727,98.02h3.5v20.081h-3.5V98.02z"/>
	<path fill="#6D6E71" d="M-148.802,98.02h14.861v3.185h-11.361v5.163h10.07v3.185h-10.07v5.364h11.504v3.185h-15.004V98.02z"/>
	<path fill="#6D6E71" d="M-122.438,118.388c-1.549,0-3.031-0.264-4.445-0.789c-1.416-0.525-2.727-1.334-3.932-2.424l2.123-2.524
		c0.977,0.842,1.961,1.487,2.955,1.937s2.123,0.674,3.385,0.674c1.09,0,1.955-0.229,2.597-0.688
		c0.639-0.459,0.961-1.071,0.961-1.836v-0.058c0-0.363-0.062-0.684-0.188-0.961s-0.355-0.54-0.691-0.789
		c-0.334-0.248-0.795-0.478-1.381-0.688c-0.583-0.21-1.345-0.42-2.285-0.631c-1.074-0.248-2.027-0.531-2.861-0.847
		s-1.533-0.697-2.1-1.147c-0.566-0.449-0.998-0.999-1.295-1.649c-0.297-0.649-0.445-1.435-0.445-2.353v-0.057
		c0-0.861,0.17-1.649,0.512-2.367c0.342-0.717,0.811-1.329,1.408-1.836c0.598-0.506,1.316-0.903,2.156-1.19s1.756-0.43,2.752-0.43
		c1.473,0,2.796,0.215,3.972,0.645c1.176,0.431,2.281,1.058,3.312,1.88l-1.893,2.667c-0.918-0.669-1.826-1.181-2.725-1.534
		c-0.9-0.354-1.808-0.531-2.726-0.531c-1.033,0-1.836,0.23-2.408,0.689c-0.574,0.459-0.861,1.022-0.861,1.692v0.058
		c0,0.382,0.066,0.722,0.201,1.018c0.135,0.297,0.379,0.564,0.732,0.804c0.355,0.239,0.844,0.464,1.467,0.674
		c0.623,0.211,1.414,0.431,2.373,0.66c1.054,0.268,1.99,0.563,2.804,0.889s1.49,0.723,2.027,1.19
		c0.537,0.469,0.945,1.016,1.223,1.636c0.277,0.621,0.416,1.344,0.416,2.166v0.057c0,0.938-0.174,1.779-0.525,2.524
		c-0.352,0.746-0.84,1.377-1.465,1.894c-0.627,0.517-1.379,0.908-2.256,1.176C-120.421,118.254-121.388,118.388-122.438,118.388z"/>
</g>
<g>
	<path fill="#2E3192" d="M295.079,33.356h49.791v10.67h-38.064v17.303h33.738v10.672h-33.738v17.975h38.545v10.67h-50.271V33.356z"
		/>
	<path fill="#2E3192" d="M389.231,44.315h-21.34V33.356h54.602v10.959h-21.34v56.33h-11.922V44.315z"/>
	<path fill="#2E3192" d="M446.724,33.356h49.793v10.67H458.45v17.303h33.74v10.672h-33.74v17.975h38.547v10.67h-50.273V33.356z"/>
	<polygon fill="#2E3192" points="159.034,32.878 148.077,32.878 118.47,100.646 130.583,100.646 141.899,73.923 141.829,73.923 
		147.812,59.962 153.556,46.397 176.196,100.646 188.642,100.646 	"/>
	<path fill="#2E3192" d="M251.372,75.173c2.369-0.641,4.533-1.555,6.488-2.738c1.953-1.188,3.635-2.631,5.047-4.328
		c1.408-1.697,2.514-3.652,3.314-5.863c0.803-2.211,1.201-4.693,1.201-7.449v-0.193c0-2.945-0.479-5.639-1.439-8.074
		c-0.963-2.436-2.342-4.582-4.135-6.439c-2.178-2.117-4.902-3.766-8.17-4.953c-3.268-1.184-7.018-1.777-11.246-1.777H212.44v67.289
		h11.729V77.192V66.714V48.231v-4.205h17.258c4.436,0,7.875,0.949,10.318,2.848c2.441,1.898,3.664,4.684,3.664,8.352v0.191
		c0,3.477-1.254,6.229-3.762,8.256c-2.506,2.029-5.881,3.041-10.123,3.041h-2.508v10.479l16.584,23.453h13.939L251.372,75.173z"/>
</g>
<path fill="#2E3192" d="M51.622,85.222v6.193c11.74,0,21.574-8.301,23.951-19.34h-6.395C66.942,79.663,59.925,85.222,51.622,85.222z
	"/>
<path fill="#2E3192" d="M51.622,48.599v-6.193c-11.857,0-21.773,8.465-24.025,19.67h6.383C36.108,54.321,43.2,48.599,51.622,48.599z
	"/>
<path fill="#EC008C" d="M51.622,39.423c13.506,0,24.758,9.795,27.051,22.652h6.277c-2.354-16.289-16.398-28.846-33.328-28.846
	s-30.977,12.557-33.33,28.846h6.277C26.862,49.218,38.116,39.423,51.622,39.423z"/>
<path fill="#EC008C" d="M51.622,94.397c-13.391,0-24.57-9.627-26.994-22.322h-6.291c2.492,16.129,16.469,28.516,33.285,28.516
	s30.791-12.387,33.283-28.516h-6.291C76.19,84.771,65.013,94.397,51.622,94.397z"/>
<path fill="#2E3192" d="M51.622,103.569c-9.738,0-18.908-3.775-25.82-10.631l-4.361,4.398c8.08,8.014,18.799,12.426,30.182,12.426
	c21.881,0,39.973-16.486,42.533-37.688h-6.244C85.394,89.851,70.083,103.569,51.622,103.569z"/>
<path fill="#2E3192" d="M51.622,24.058c-11.424,0-22.17,4.443-30.262,12.51l4.375,4.387c6.92-6.902,16.115-10.703,25.887-10.703
	c18.574,0,33.955,13.889,36.332,31.824h6.242C91.786,40.716,73.616,24.058,51.622,24.058z"/>
<path fill="#F6ADCD" d="M88.585,30.054l-4.387,4.373c7.51,7.531,12.088,17.209,13.17,27.648h6.225
	C102.487,49.983,97.261,38.755,88.585,30.054z"/>
<path fill="#F6ADCD" d="M14.78,103.888c9.85,9.816,22.934,15.223,36.842,15.223v-6.193c-12.258,0-23.789-4.766-32.469-13.416
	L14.78,103.888z"/>
<path fill="#F6ADCD" d="M51.622,20.907v-6.193c-13.938,0-27.045,5.428-36.904,15.283l4.379,4.381
	C27.786,25.692,39.339,20.907,51.622,20.907z"/>
</svg>
