<?xml version="1.0" encoding="UTF-8" standalone="no"?>
<!-- Created with Inkscape (http://www.inkscape.org/) -->

<svg
   width="1055.8293"
   height="674.35541"
   viewBox="0 0 1055.8293 674.35541"
   version="1.1"
   id="svg1"
   xml:space="preserve"
   inkscape:version="1.3 (0e150ed6c4, 2023-07-21)"
   sodipodi:docname="arete-website-topcontainer.svg"
   xmlns:inkscape="http://www.inkscape.org/namespaces/inkscape"
   xmlns:sodipodi="http://sodipodi.sourceforge.net/DTD/sodipodi-0.dtd"
   xmlns="http://www.w3.org/2000/svg"
   xmlns:svg="http://www.w3.org/2000/svg"><sodipodi:namedview
     id="namedview1"
     pagecolor="#ffffff"
     bordercolor="#000000"
     borderopacity="0.25"
     inkscape:showpageshadow="2"
     inkscape:pageopacity="0.0"
     inkscape:pagecheckerboard="0"
     inkscape:deskcolor="#d1d1d1"
     inkscape:document-units="px"
     inkscape:zoom="0.48097993"
     inkscape:cx="356.56374"
     inkscape:cy="633.08256"
     inkscape:window-width="1920"
     inkscape:window-height="974"
     inkscape:window-x="2869"
     inkscape:window-y="-11"
     inkscape:window-maximized="1"
     inkscape:current-layer="layer1" /><defs
     id="defs1"><rect
       x="-24.949066"
       y="49.898132"
       width="782.77695"
       height="306.66561"
       id="rect4" /><rect
       x="127.86396"
       y="167.36665"
       width="716.24611"
       height="132.02215"
       id="rect3" /><rect
       x="123.70579"
       y="165.28756"
       width="334.73331"
       height="51.977221"
       id="rect2" /><rect
       x="127.90199"
       y="101.43951"
       width="709.52664"
       height="153.16449"
       id="rect1" /><clipPath
       clipPathUnits="userSpaceOnUse"
       id="clipPath3721"><path
         d="M 0,4529 H 1024 V 0 H 0 Z"
         id="path3719"
         inkscape:connector-curvature="0" /></clipPath><clipPath
       clipPathUnits="userSpaceOnUse"
       id="clipPath4097"><path
         d="M 0,4529 H 1024 V 0 H 0 Z"
         id="path4095"
         inkscape:connector-curvature="0" /></clipPath></defs><g
     inkscape:label="Layer 1"
     inkscape:groupmode="layer"
     id="layer1"
     transform="translate(-8.685608,-6.0994682)"><g
       inkscape:label="Layer 1"
       id="layer1-0"
       transform="matrix(3.7795276,0,0,3.7795276,91.285396,-444.09593)"><g
         style="display:inline;enable-background:new"
         id="g3711"
         transform="matrix(0.20741385,0,0,-0.06046725,103.74938,155.62194)"><path
           d="M -49.590106,-2267.2414 -504.039,-1444.8606 v -902.12 H 519.96 v 994.4019 z"
           style="fill:#f2f2f2;fill-opacity:1;fill-rule:nonzero;stroke:none"
           id="path3713"
           inkscape:connector-curvature="0"
           sodipodi:nodetypes="cccccc" /></g><path
         d="m 94.101913,270.00114 c -37.408446,0 -72.638593,-14.50565 -99.2002147,-40.83708 L -21.854527,246.0608 c 31.0470277,30.78446 72.227748,47.73914 115.95644,47.73914 84.070327,0 153.571117,-63.34602 163.398417,-144.79407 H 233.52089 C 223.848,217.29856 165.03162,270.00114 94.101913,270.00114"
         style="display:inline;fill:#2e3191;fill-opacity:1;fill-rule:nonzero;stroke:none;stroke-width:0.204804;enable-background:new"
         id="path3725"
         inkscape:connector-curvature="0" /><a
         transform="matrix(0.2048038,0,0,-0.2048038,0.27366172,1038.0719)"
         style="display:inline;enable-background:new"
         id="a4288"><g
           style="display:inline"
           id="g4286"
           inkscape:export-filename="C:\Users\graeh\Dropbox\Arete (IoQS)\Website.png"
           inkscape:export-xdpi="96"
           inkscape:export-ydpi="96"><g
             id="g4284"
             clip-path="url(#clipPath4097)"><g
               id="g4266"
               transform="translate(629.9131,3999.6152)"><path
                 d="M 0,0 C -53.413,0 -103.714,20.71 -141.639,58.307 L -165.564,34.183 C -121.235,-9.774 -62.437,-33.98 0,-33.98 c 120.034,0 219.27,90.445 233.3,206.737 H 199.062 C 185.252,75.25 101.274,0 0,0"
                 style="fill:#2e3191;fill-opacity:1;fill-rule:nonzero;stroke:none"
                 id="path4264"
                 inkscape:connector-curvature="0" /></g><g
               id="g4270"
               transform="translate(629.9131,4435.7632)"><path
                 d="m 0,0 c -62.659,0 -121.61,-24.374 -165.987,-68.62 l 23.983,-24.066 c 37.972,37.864 88.402,58.705 142.004,58.705 101.896,0 186.261,-76.177 199.298,-174.554 h 34.25 C 220.312,-91.372 120.646,0 0,0"
                 style="fill:#2e3191;fill-opacity:1;fill-rule:nonzero;stroke:none"
                 id="path4268"
                 inkscape:connector-curvature="0" /></g><g
               id="g4274"
               transform="translate(832.6719,4402.8726)"><path
                 d="M 0,0 -24.065,-23.997 C 17.132,-65.3 42.242,-118.395 48.179,-175.645 H 82.313 C 76.258,-109.324 47.592,-47.723 0,0"
                 style="fill:#f5accc;fill-opacity:1;fill-rule:nonzero;stroke:none"
                 id="path4272"
                 inkscape:connector-curvature="0" /></g><g
               id="g4278"
               transform="translate(427.8208,3997.8716)"><path
                 d="m 0,0 c 54.034,-53.849 125.811,-83.499 202.092,-83.499 v 33.97 c -67.236,0 -130.481,26.13 -178.109,73.592 z"
                 style="fill:#f5accc;fill-opacity:1;fill-rule:nonzero;stroke:none"
                 id="path4276"
                 inkscape:connector-curvature="0" /></g><g
               id="g4282"
               transform="translate(629.9131,4453.0459)"><path
                 d="m 0,0 v 33.969 c -76.446,0 -148.351,-29.767 -202.431,-83.837 l 24.017,-24.03 C -130.748,-26.247 -67.377,0 0,0"
                 style="fill:#f5accc;fill-opacity:1;fill-rule:nonzero;stroke:none"
                 id="path4280"
                 inkscape:connector-curvature="0" /></g></g></g></a></g><text
       xml:space="preserve"
       transform="translate(-43.679248,28.249345)"
       id="text1"
       style="font-style:normal;font-variant:normal;font-weight:normal;font-stretch:normal;font-size:33.3333px;font-family:Montserrat;-inkscape-font-specification:'Montserrat, Normal';font-variant-ligatures:normal;font-variant-caps:normal;font-variant-numeric:normal;font-variant-east-asian:normal;white-space:pre;shape-inside:url(#rect1);shape-padding:4.15818;fill:#2e3191;fill-opacity:1"><tspan
         x="132.06055"
         y="139.65796"
         id="tspan2"><tspan
           style="font-size:37.3333px;font-family:Sans;-inkscape-font-specification:'Sans, Normal'"
           id="tspan1">Precision, preventative platform&#10;</tspan></tspan><tspan
         x="132.06055"
         y="186.32459"
         id="tspan8"><tspan
           style="font-size:37.3333px;font-family:Sans;-inkscape-font-specification:'Sans, Normal'"
           id="tspan3">for chronic lung disease</tspan><tspan
           style="fill:#2e3091"
           id="tspan6">&#10;</tspan></tspan></text><text
       xml:space="preserve"
       transform="translate(8.685608,6.0994682)"
       id="text2"
       style="fill:#000000;white-space:pre;shape-inside:url(#rect2)" /><text
       xml:space="preserve"
       transform="translate(-39.189746,68.319167)"
       id="text3"
       style="font-style:normal;font-variant:normal;font-weight:normal;font-stretch:normal;font-size:26.6667px;font-family:Montserrat;-inkscape-font-specification:'Montserrat, Normal';font-variant-ligatures:normal;font-variant-caps:normal;font-variant-numeric:normal;font-variant-east-asian:normal;white-space:pre;shape-inside:url(#rect3);shape-padding:0;fill:#1a1a1a;fill-opacity:1"><tspan
         x="127.86328"
         y="191.87638"
         id="tspan9">Decreasing sensor costs, AI/ML, modelling &#10;</tspan><tspan
         x="127.86328"
         y="225.20975"
         id="tspan10">give a full picture of lung inflammation and&#10;</tspan><tspan
         x="127.86328"
         y="258.54313"
         id="tspan11">mechanics in asthmas, COPD, long COVID</tspan></text><text
       xml:space="preserve"
       transform="translate(8.685608,6.0994682)"
       id="text4"
       style="fill:#000000;-inkscape-font-specification:'Montserrat, Normal';font-family:Montserrat;font-weight:normal;font-style:normal;font-stretch:normal;font-variant:normal;font-size:26.66666667px;font-variant-ligatures:normal;font-variant-caps:normal;font-variant-numeric:normal;font-variant-east-asian:normal;white-space:pre;shape-inside:url(#rect4)" /></g></svg>
