<?xml version="1.0" encoding="UTF-8" standalone="no"?>
<!-- Created with Inkscape (http://www.inkscape.org/) -->

<svg
   xmlns:dc="http://purl.org/dc/elements/1.1/"
   xmlns:cc="http://creativecommons.org/ns#"
   xmlns:rdf="http://www.w3.org/1999/02/22-rdf-syntax-ns#"
   xmlns:svg="http://www.w3.org/2000/svg"
   xmlns="http://www.w3.org/2000/svg"
   xmlns:sodipodi="http://sodipodi.sourceforge.net/DTD/sodipodi-0.dtd"
   xmlns:inkscape="http://www.inkscape.org/namespaces/inkscape"
   width="171.98015mm"
   height="202.01547mm"
   viewBox="0 0 171.98015 202.01547"
   version="1.1"
   id="svg4304"
   inkscape:version="0.92.2 (5c3e80d, 2017-08-06)"
   sodipodi:docname="HeaderLogo.svg">
  <defs
     id="defs4298">
    <clipPath
       clipPathUnits="userSpaceOnUse"
       id="clipPath4097">
      <path
         d="M 0,4529 H 1024 V 0 H 0 Z"
         id="path4095"
         inkscape:connector-curvature="0" />
    </clipPath>
  </defs>
  <sodipodi:namedview
     id="base"
     pagecolor="#ffffff"
     bordercolor="#666666"
     borderopacity="1.0"
     inkscape:pageopacity="0.0"
     inkscape:pageshadow="2"
     inkscape:zoom="0.35"
     inkscape:cx="334.43041"
     inkscape:cy="231.47614"
     inkscape:document-units="mm"
     inkscape:current-layer="layer1"
     showgrid="false"
     inkscape:window-width="1920"
     inkscape:window-height="1001"
     inkscape:window-x="-9"
     inkscape:window-y="-9"
     inkscape:window-maximized="1" />
  <metadata
     id="metadata4301">
    <rdf:RDF>
      <cc:Work
         rdf:about="">
        <dc:format>image/svg+xml</dc:format>
        <dc:type
           rdf:resource="http://purl.org/dc/dcmitype/StillImage" />
        <dc:title></dc:title>
      </cc:Work>
    </rdf:RDF>
  </metadata>
  <g
     inkscape:label="Layer 1"
     inkscape:groupmode="layer"
     id="layer1"
     transform="translate(-17.348622,-8.0625896)">
    <a
       transform="matrix(0.35277777,0,0,-0.35277777,-133.45756,1590.9817)"
       style="display:inline;enable-background:new"
       id="a4288">
      <g
         style="display:inline"
         id="g4286"
         inkscape:export-filename="C:\Users\graeh\Dropbox\Arete (IoQS)\Website.png"
         inkscape:export-xdpi="96"
         inkscape:export-ydpi="96">
        <g
           id="g4284"
           clip-path="url(#clipPath4097)">
          <g
             id="g4266"
             transform="translate(629.9131,3999.6152)">
            <path
               d="M 0,0 C -53.413,0 -103.714,20.71 -141.639,58.307 L -165.564,34.183 C -121.235,-9.774 -62.437,-33.98 0,-33.98 c 120.034,0 219.27,90.445 233.3,206.737 H 199.062 C 185.252,75.25 101.274,0 0,0"
               style="fill:#2e3191;fill-opacity:1;fill-rule:nonzero;stroke:none"
               id="path4264"
               inkscape:connector-curvature="0" />
          </g>
          <g
             id="g4270"
             transform="translate(629.9131,4435.7632)">
            <path
               d="m 0,0 c -62.659,0 -121.61,-24.374 -165.987,-68.62 l 23.983,-24.066 c 37.972,37.864 88.402,58.705 142.004,58.705 101.896,0 186.261,-76.177 199.298,-174.554 h 34.25 C 220.312,-91.372 120.646,0 0,0"
               style="fill:#2e3191;fill-opacity:1;fill-rule:nonzero;stroke:none"
               id="path4268"
               inkscape:connector-curvature="0" />
          </g>
          <g
             id="g4274"
             transform="translate(832.6719,4402.8726)">
            <path
               d="M 0,0 -24.065,-23.997 C 17.132,-65.3 42.242,-118.395 48.179,-175.645 H 82.313 C 76.258,-109.324 47.592,-47.723 0,0"
               style="fill:#f5accc;fill-opacity:1;fill-rule:nonzero;stroke:none"
               id="path4272"
               inkscape:connector-curvature="0" />
          </g>
          <g
             id="g4278"
             transform="translate(427.8208,3997.8716)">
            <path
               d="m 0,0 c 54.034,-53.849 125.811,-83.499 202.092,-83.499 v 33.97 c -67.236,0 -130.481,26.13 -178.109,73.592 z"
               style="fill:#f5accc;fill-opacity:1;fill-rule:nonzero;stroke:none"
               id="path4276"
               inkscape:connector-curvature="0" />
          </g>
          <g
             id="g4282"
             transform="translate(629.9131,4453.0459)">
            <path
               d="m 0,0 v 33.969 c -76.446,0 -148.351,-29.767 -202.431,-83.837 l 24.017,-24.03 C -130.748,-26.247 -67.377,0 0,0"
               style="fill:#f5accc;fill-opacity:1;fill-rule:nonzero;stroke:none"
               id="path4280"
               inkscape:connector-curvature="0" />
          </g>
        </g>
      </g>
    </a>
  </g>
</svg>
